PathFileType	4	(X/Y/Z)	C:\Users\Graham\Documents\MATLAB\MOtoNMS_v2_2\MyData\ElaboratedData\S1\17-05-18\staticElaborations\Static1\Static1\\Static1.trc
DataRate	CameraRate	NumFrames	NumMarkers	Units	OrigDataRate	DataStartFrame
100	100	6	38	mm	100	2
Frame#	Time	V_Sacral			R_ASIS			L_ASIS			R_Knee_Lat			R_Knee_Med			R_Thigh_Upper			R_Thigh_Front			R_Thigh_Rear			L_Knee_Lat			L_Knee_Med			L_Thigh_Upper			L_Thigh_Front			L_Thigh_Rear			R_Ankle_Lat			R_Ankle_Med			R_Shank_Upper			R_Shank_Front			R_Shank_Rear			L_Ankle_Lat			L_Ankle_Med			L_Shank_Upper			L_Shank_Front			L_Shank_Rear			R_Heel			R_MTP1			R_MTP5			L_Heel			L_MTP1			L_MTP5			Clavicle			R_Acromium			L_Acromium			LAJC			RAJC			LHJC			RHJC			LKJC			RKJC		
		X1	Y1	Z1	X2	Y2	Z2	X3	Y3	Z3	X4	Y4	Z4	X5	Y5	Z5	X6	Y6	Z6	X7	Y7	Z7	X8	Y8	Z8	X9	Y9	Z9	X10	Y10	Z10	X11	Y11	Z11	X12	Y12	Z12	X13	Y13	Z13	X14	Y14	Z14	X15	Y15	Z15	X16	Y16	Z16	X17	Y17	Z17	X18	Y18	Z18	X19	Y19	Z19	X20	Y20	Z20	X21	Y21	Z21	X22	Y22	Z22	X23	Y23	Z23	X24	Y24	Z24	X25	Y25	Z25	X26	Y26	Z26	X27	Y27	Z27	X28	Y28	Z28	X29	Y29	Z29	X30	Y30	Z30	X31	Y31	Z31	X32	Y32	Z32	X33	Y33	Z33	X34	Y34	Z34	X35	Y35	Z35	X36	Y36	Z36	X37	Y37	Z37	X38	Y38	Z38	

147	1.460000	-45.668828	1071.316077	5.157066	155.258856	1026.271387	127.917132	153.567037	1034.789604	-104.545505	16.028346	533.388390	173.720835	40.883997	522.518802	65.556295	147.316614	867.344965	169.868992	158.187844	743.973302	135.823606	105.157555	743.422639	195.608219	19.956613	537.560666	-163.953679	27.944942	521.019722	-56.353989	155.595312	862.443225	-145.479779	158.370192	744.617668	-95.942426	119.868546	742.776781	-172.174620	11.812935	111.609490	183.713311	20.735286	107.591967	99.377664	67.464005	329.697130	164.426314	44.971414	217.176595	108.767414	33.881540	213.585215	190.018953	6.028604	99.842302	-175.020714	25.274049	104.853320	-86.516202	59.663253	332.501884	-149.843446	41.251466	214.576300	-105.368371	27.992207	217.192039	-183.686270	-56.130353	53.668282	127.675996	174.681160	62.759540	115.652926	161.890246	57.049997	191.790549	-62.473838	56.904387	-125.385775	174.508628	58.961393	-112.328591	151.680223	51.716126	-197.135467	152.284020	1461.639821	12.233064	109.170695	1499.167483	203.423877	95.524906	1506.724290	-189.624140	15.651326	102.347811	-130.768458	16.274111	109.600728	141.545488	80.024508	966.253910	-74.252944	81.247291	960.097266	93.762218	23.950777	529.290194	-110.153834	28.456171	527.953596	119.638565	
148	1.470000	-45.711609	1071.326190	5.124130	155.188035	1026.272389	127.946509	153.562079	1034.783679	-104.517480	15.972584	533.389576	173.749407	40.864967	522.523071	65.558024	147.240479	867.347396	169.896132	158.130984	743.978073	135.854191	105.083640	743.424359	195.629919	19.951360	537.558277	-163.954865	27.927962	521.017632	-56.354779	155.591456	862.438454	-145.445326	158.346697	744.611891	-95.908897	119.866489	742.772450	-172.151983	11.811974	111.609912	183.712564	20.736757	107.591379	99.378746	67.442611	329.703860	164.427289	44.968471	217.182095	108.766937	33.861418	213.584328	190.022596	6.028881	99.843365	-175.022684	25.273160	104.853616	-86.516454	59.661114	332.502388	-149.839921	41.245961	214.575284	-105.370352	27.995735	217.191511	-183.685738	-56.130315	53.667802	127.675673	174.681123	62.759400	115.654814	161.889749	57.049357	191.789733	-62.472894	56.903211	-125.385155	174.508941	58.960949	-112.327328	151.680754	51.716657	-197.134747	152.263656	1461.634357	12.235849	109.101007	1499.149441	203.428937	95.598032	1506.768279	-189.616241	15.651021	102.348491	-130.769569	16.274366	109.600645	141.545655	80.005106	966.253131	-74.243406	81.180285	960.101495	93.772694	23.939661	529.287954	-110.154822	28.418776	527.956323	119.653715	
149	1.480000	-45.753839	1071.336391	5.088428	155.114144	1026.272009	127.980032	153.562093	1034.778816	-104.485307	15.915834	533.391031	173.772169	40.845379	522.527588	65.559583	147.160005	867.349103	169.926460	158.070661	743.983332	135.888973	105.001848	743.424998	195.652906	19.949539	537.555743	-163.957051	27.911970	521.015954	-56.356379	155.594183	862.434870	-145.405999	158.329081	744.606984	-95.870824	119.873016	742.768297	-172.125865	11.810695	111.610498	183.711539	20.738121	107.590784	99.379616	67.418509	329.710353	164.429101	44.964620	217.186747	108.766278	33.840010	213.584008	190.026133	6.029276	99.844541	-175.024879	25.272170	104.854060	-86.517044	59.660792	332.502527	-149.836107	41.240328	214.573443	-105.372423	28.000694	217.190704	-183.685800	-56.130463	53.667125	127.675366	174.681181	62.759590	115.656455	161.889315	57.048911	191.789007	-62.471812	56.901899	-125.384295	174.509275	58.960265	-112.325806	151.681144	51.716971	-197.134115	152.244513	1461.630342	12.242987	109.031410	1499.125720	203.441745	95.671431	1506.817182	-189.599130	15.650723	102.349300	-130.770962	16.274408	109.600641	141.545578	79.989459	966.253124	-74.232980	81.111222	960.104730	93.784053	23.930755	529.285849	-110.156715	28.380607	527.959310	119.665876	
150	1.490000	-45.794499	1071.346294	5.051331	155.038822	1026.269852	128.016535	153.566096	1034.775007	-104.450158	15.858703	533.392897	173.788079	40.824227	522.531781	65.560803	147.077354	867.350208	169.959134	158.007062	743.988420	135.927072	104.913121	743.424463	195.676422	19.950636	537.553166	-163.960381	27.896711	521.014594	-56.358870	155.602891	862.432484	-145.363043	158.317470	744.603112	-95.829309	119.887585	742.764444	-172.097169	11.809021	111.611177	183.710266	20.739192	107.590301	99.379957	67.391590	329.716378	164.431959	44.959734	217.190480	108.765595	33.817450	213.584319	190.029417	6.029759	99.845571	-175.027109	25.271107	104.854569	-86.517911	59.661862	332.502330	-149.832269	41.234655	214.570938	-105.374437	28.006752	217.189684	-183.686637	-56.130858	53.666278	127.675047	174.681314	62.760197	115.657800	161.888914	57.048784	191.788438	-62.470655	56.900597	-125.383403	174.509567	58.959375	-112.324197	151.681312	51.717127	-197.133557	152.225982	1461.627443	12.252164	108.965904	1499.096982	203.460505	95.740003	1506.869516	-189.574197	15.650433	102.350070	-130.772510	16.274107	109.600739	141.545112	79.977123	966.253770	-74.222119	81.041553	960.106572	93.795844	23.923673	529.283880	-110.159625	28.341465	527.962339	119.674441	
151	1.500000	-45.832470	1071.355640	5.014272	154.963937	1026.265593	128.054595	153.572994	1034.772134	-104.413476	15.801784	533.395354	173.796867	40.800577	522.535077	65.561579	146.994734	867.350743	169.993100	157.940407	743.992573	135.967352	104.818851	743.422766	195.699734	19.954027	537.550662	-163.964895	27.881919	521.013433	-56.362203	155.616622	862.431131	-145.318041	158.311547	744.600315	-95.785692	119.909059	742.760953	-172.067004	11.806917	111.611864	183.708806	20.739826	107.590020	99.379547	67.361981	329.721780	164.435974	44.953642	217.193191	108.765079	33.793977	213.585284	190.032351	6.030295	99.846230	-175.029202	25.270017	104.855063	-86.518965	59.663883	332.501839	-149.828684	41.228973	214.568022	-105.376372	28.013562	217.188531	-183.688354	-56.131552	53.665295	127.674709	174.681483	62.761241	115.658814	161.888509	57.049036	191.788095	-62.469442	56.899446	-125.382698	174.509760	58.958347	-112.322684	151.681219	51.717197	-197.133054	152.207682	1461.625182	12.260801	108.908976	1499.064831	203.483141	95.798874	1506.923132	-189.543566	15.650156	102.350646	-130.774084	16.273372	109.600942	141.544177	79.967538	966.254914	-74.211383	80.972857	960.106716	93.807518	23.917973	529.282048	-110.163549	28.301181	527.965215	119.679223	
152	1.510000	-45.866681	1071.364308	4.978642	154.891463	1026.259045	128.092624	153.581614	1034.769999	-104.376896	15.745742	533.398583	173.799064	40.773803	522.537011	65.561884	146.914229	867.350650	170.027127	157.871077	743.995055	136.008434	104.720916	743.420039	195.722156	19.959031	537.548341	-163.970516	27.867411	521.012373	-56.366203	155.634096	862.430524	-145.272834	158.310569	744.598520	-95.741483	119.935780	742.757828	-172.036606	11.804403	111.612474	183.707247	20.739938	107.589965	99.378301	67.330118	329.726493	164.441146	44.946164	217.194759	108.764908	33.769937	213.586866	190.034899	6.030850	99.846355	-175.031036	25.268964	104.855477	-86.520112	59.666453	332.501111	-149.825600	41.223260	214.565011	-105.378330	28.020789	217.187324	-183.690952	-56.132578	53.664208	127.674372	174.681635	62.762665	115.659474	161.888071	57.049652	191.788047	-62.468156	56.898556	-125.382366	174.509812	58.957285	-112.321426	151.680884	51.717239	-197.132587	152.189481	1461.622972	12.266312	108.865375	1499.031728	203.507597	95.843879	1506.975382	-189.509914	15.649907	102.350916	-130.775574	16.272171	109.601219	141.542774	79.960034	966.256389	-74.201393	80.906742	960.105004	93.818484	23.913221	529.280357	-110.168359	28.259772	527.967797	119.680474	
